<?xml version="1.0" encoding="UTF-8" standalone="no"?>
<!-- Created with Inkscape (http://www.inkscape.org/) -->

<svg
   xmlns:dc="http://purl.org/dc/elements/1.1/"
   xmlns:cc="http://creativecommons.org/ns#"
   xmlns:rdf="http://www.w3.org/1999/02/22-rdf-syntax-ns#"
   xmlns:svg="http://www.w3.org/2000/svg"
   xmlns="http://www.w3.org/2000/svg"
   xmlns:xlink="http://www.w3.org/1999/xlink"
   xmlns:sodipodi="http://sodipodi.sourceforge.net/DTD/sodipodi-0.dtd"
   xmlns:inkscape="http://www.inkscape.org/namespaces/inkscape"
   version="1.0"
   width="16"
   height="16"
   id="svg1"
   inkscape:version="0.48.1 r9760"
   sodipodi:docname="love_song.svg">
  <metadata
     id="metadata27">
    <rdf:RDF>
      <cc:Work
         rdf:about="">
        <dc:format>image/svg+xml</dc:format>
        <dc:type
           rdf:resource="http://purl.org/dc/dcmitype/StillImage" />
      </cc:Work>
    </rdf:RDF>
  </metadata>
  <sodipodi:namedview
     pagecolor="#ffffff"
     bordercolor="#666666"
     borderopacity="1"
     objecttolerance="10"
     gridtolerance="10"
     guidetolerance="10"
     inkscape:pageopacity="0"
     inkscape:pageshadow="2"
     inkscape:window-width="640"
     inkscape:window-height="480"
     id="namedview25"
     showgrid="false"
     inkscape:zoom="12.272727"
     inkscape:cx="11"
     inkscape:cy="11"
     inkscape:window-x="0"
     inkscape:window-y="24"
     inkscape:window-maximized="0"
     inkscape:current-layer="svg1" />
  <defs
     id="defs3">
    <linearGradient
       id="linearGradient2780">
      <stop
         id="stop2782"
         style="stop-color:white;stop-opacity:1"
         offset="0" />
      <stop
         id="stop2784"
         style="stop-color:white;stop-opacity:0"
         offset="1" />
    </linearGradient>
    <linearGradient
       id="linearGradient6621">
      <stop
         id="stop6622"
         style="stop-color:#f5a108;stop-opacity:0"
         offset="0" />
      <stop
         id="stop6623"
         style="stop-color:#fefdc3;stop-opacity:0.74251497"
         offset="1" />
    </linearGradient>
    <linearGradient
       x1="22.819513"
       y1="28.829224"
       x2="12.849945"
       y2="12.239423"
       id="linearGradient7881"
       xlink:href="#linearGradient6621"
       gradientUnits="userSpaceOnUse"
       gradientTransform="matrix(0.37264736,0,0,0.18857663,-0.13925644,0.85815542)" />
    <linearGradient
       x1="24"
       y1="5.0793009"
       x2="24"
       y2="41.0793"
       id="linearGradient2786"
       xlink:href="#linearGradient2780"
       gradientUnits="userSpaceOnUse"
       gradientTransform="matrix(0.33567023,0,0,0.33162633,-0.19318141,0.30884652)" />
    <linearGradient
       id="linearGradient3242">
      <stop
         id="stop3244"
         style="stop-color:#f8b17e;stop-opacity:1"
         offset="0" />
      <stop
         id="stop3246"
         style="stop-color:#e35d4f;stop-opacity:1"
         offset="0.31209752" />
      <stop
         id="stop3248"
         style="stop-color:#c6262e;stop-opacity:1"
         offset="0.57054454" />
      <stop
         id="stop3250"
         style="stop-color:#690b54;stop-opacity:1"
         offset="1" />
    </linearGradient>
    <linearGradient
       id="linearGradient2490">
      <stop
         id="stop2492"
         style="stop-color:#791235;stop-opacity:1"
         offset="0" />
      <stop
         id="stop2494"
         style="stop-color:#dd3b27;stop-opacity:1"
         offset="1" />
    </linearGradient>
    <linearGradient
       x1="24"
       y1="6"
       x2="24"
       y2="51"
       id="linearGradient3853"
       xlink:href="#linearGradient3242"
       gradientUnits="userSpaceOnUse"
       gradientTransform="matrix(0.35175488,0,0,0.34604709,-0.57888744,-0.75421464)" />
    <linearGradient
       x1="17"
       y1="45"
       x2="17"
       y2="6"
       id="linearGradient3861"
       xlink:href="#linearGradient2490"
       gradientUnits="userSpaceOnUse"
       gradientTransform="matrix(0.35175488,0,0,0.34604709,-0.57888744,-0.75421464)" />
  </defs>
  <path
     d="M 4.3588509,2.187258 C 2.4706693,2.0958647 1.5910193,3.2886518 1.1151968,4.4233374 c -0.47219409,1.4942331 0.1952895,4.3164877 3.466275,4.1017824 1.8657538,0 2.6073242,-1.8815227 3.5892609,-2.3699555 0.8923962,-0.3318076 0.9626317,-0.3615042 1.9054623,-0.3615042 1.310241,0 3.679657,-0.932454 3.679658,-1.857666 C 13.353115,3.1935677 12.283901,1.8714213 10.319152,2.0967658 9.068509,2.2399022 7.885327,3.1189987 7.5762627,3.5564399 6.8191596,2.8997755 5.8524527,2.187258 4.3588509,2.187258 z"
     id="path7876"
     style="fill:url(#linearGradient7881);fill-opacity:1;fill-rule:evenodd;stroke:none"
     inkscape:connector-curvature="0" />
  <path
     d="m 7.805739,2.7749853 c 3.267337,-3.21297868 7.757422,-0.2515627 7.727887,2.7955415 -0.027,2.7855836 -2.18593,4.1196345 -7.6097455,9.0743542 C 2.2467792,10.035574 0.24653286,8.97265 0.27606804,5.6676485 0.30560328,2.2464707 4.1494948,-0.32113945 7.805739,2.7749853 z"
     id="path920"
     style="fill:url(#linearGradient3853);fill-opacity:1;fill-rule:evenodd;stroke:url(#linearGradient3861);stroke-width:0.7120927;stroke-linecap:butt;stroke-linejoin:miter;stroke-miterlimit:4;stroke-opacity:1;stroke-dasharray:none"
     inkscape:connector-curvature="0" />
  <path
     d="M 4.8838306,2.1017014 C 4.6043718,2.0780664 4.325779,2.0840389 4.0656345,2.122428 2.3298135,2.3785805 1.0187933,3.9435314 1.0026437,5.8221346 0.98921211,7.3315118 1.3908138,8.2444503 2.50267,9.407844 3.5742211,10.529064 5.3607346,11.872291 7.9153526,13.946979 10.360004,11.713976 12.118623,10.218593 13.212648,9.0451271 14.34796,7.8273786 14.795105,6.9698138 14.807081,5.7288641 14.819434,4.4496178 13.847424,3.1065225 12.509839,2.474781 11.172254,1.8430395 9.5298689,1.8751936 8.0726978,3.3142101 A 0.37646413,0.37192878 0 0 1 7.5691932,3.3349364 C 6.6372606,2.5424195 5.7222081,2.1726062 4.8838306,2.1017014 z"
     id="path2778"
     style="opacity:0.4;fill:none;stroke:url(#linearGradient2786);stroke-width:0.71209282;stroke-linecap:butt;stroke-linejoin:miter;stroke-miterlimit:4;stroke-opacity:1;stroke-dasharray:none"
     inkscape:connector-curvature="0" />
</svg>
